<svg width="871" height="290" viewBox="0 0 871 290" fill="none" xmlns="http://www.w3.org/2000/svg">
<path d="M65.52 232L24.192 186.208V232H11.088V131.632H24.192V178.144L65.664 131.632H82.224L36.72 181.888L82.656 232H65.52ZM131.707 233.296C124.315 233.296 117.595 231.616 111.547 228.256C105.595 224.896 100.891 220.144 97.4351 214C94.0751 207.76 92.3951 200.56 92.3951 192.4C92.3951 184.336 94.1231 177.232 97.5791 171.088C101.131 164.848 105.931 160.096 111.979 156.832C118.027 153.472 124.795 151.792 132.283 151.792C139.771 151.792 146.539 153.472 152.587 156.832C158.635 160.096 163.387 164.8 166.843 170.944C170.395 177.088 172.171 184.24 172.171 192.4C172.171 200.56 170.347 207.76 166.699 214C163.147 220.144 158.299 224.896 152.155 228.256C146.011 231.616 139.195 233.296 131.707 233.296ZM131.707 221.776C136.411 221.776 140.827 220.672 144.955 218.464C149.083 216.256 152.395 212.944 154.891 208.528C157.483 204.112 158.779 198.736 158.779 192.4C158.779 186.064 157.531 180.688 155.035 176.272C152.539 171.856 149.275 168.592 145.243 166.48C141.211 164.272 136.843 163.168 132.139 163.168C127.339 163.168 122.923 164.272 118.891 166.48C114.955 168.592 111.787 171.856 109.387 176.272C106.987 180.688 105.787 186.064 105.787 192.4C105.787 198.832 106.939 204.256 109.243 208.672C111.643 213.088 114.811 216.4 118.747 218.608C122.683 220.72 127.003 221.776 131.707 221.776ZM227.849 151.648C237.449 151.648 245.225 154.576 251.177 160.432C257.129 166.192 260.105 174.544 260.105 185.488V232H247.145V187.36C247.145 179.488 245.177 173.488 241.241 169.36C237.305 165.136 231.929 163.024 225.113 163.024C218.201 163.024 212.681 165.184 208.553 169.504C204.521 173.824 202.505 180.112 202.505 188.368V232H189.401V153.088H202.505V164.32C205.097 160.288 208.601 157.168 213.017 154.96C217.529 152.752 222.473 151.648 227.849 151.648ZM319.958 151.648C329.558 151.648 337.334 154.576 343.286 160.432C349.238 166.192 352.214 174.544 352.214 185.488V232H339.254V187.36C339.254 179.488 337.286 173.488 333.35 169.36C329.414 165.136 324.038 163.024 317.222 163.024C310.31 163.024 304.79 165.184 300.662 169.504C296.63 173.824 294.614 180.112 294.614 188.368V232H281.51V153.088H294.614V164.32C297.206 160.288 300.71 157.168 305.126 154.96C309.638 152.752 314.582 151.648 319.958 151.648ZM445.619 189.52C445.619 192.016 445.475 194.656 445.187 197.44H382.115C382.595 205.216 385.235 211.312 390.035 215.728C394.931 220.048 400.835 222.208 407.747 222.208C413.411 222.208 418.115 220.912 421.859 218.32C425.699 215.632 428.387 212.08 429.923 207.664H444.035C441.923 215.248 437.699 221.44 431.363 226.24C425.027 230.944 417.155 233.296 407.747 233.296C400.259 233.296 393.539 231.616 387.587 228.256C381.731 224.896 377.123 220.144 373.763 214C370.403 207.76 368.723 200.56 368.723 192.4C368.723 184.24 370.355 177.088 373.619 170.944C376.883 164.8 381.443 160.096 387.299 156.832C393.251 153.472 400.067 151.792 407.747 151.792C415.235 151.792 421.859 153.424 427.619 156.688C433.379 159.952 437.795 164.464 440.867 170.224C444.035 175.888 445.619 182.32 445.619 189.52ZM432.083 186.784C432.083 181.792 430.979 177.52 428.771 173.968C426.563 170.32 423.539 167.584 419.699 165.76C415.955 163.84 411.779 162.88 407.171 162.88C400.547 162.88 394.883 164.992 390.179 169.216C385.571 173.44 382.931 179.296 382.259 186.784H432.083ZM506.98 232L476.02 197.152V232H462.916V125.44H476.02V188.08L506.404 153.088H524.692L487.54 192.4L524.836 232H506.98ZM553.01 163.888V210.4C553.01 214.24 553.826 216.976 555.458 218.608C557.09 220.144 559.922 220.912 563.953 220.912H573.602V232H561.794C554.498 232 549.026 230.32 545.378 226.96C541.73 223.6 539.906 218.08 539.906 210.4V163.888H529.682V153.088H539.906V133.216H553.01V153.088H573.602V163.888H553.01Z" fill="black"/>
<rect x="623" width="248" height="248" rx="20" fill="#D052FC"/>
<path d="M710.152 174L679.192 139.152V174H666.088V67.44H679.192V130.08L709.576 95.088H727.864L690.712 134.4L728.008 174H710.152ZM784.261 174L753.301 139.152V174H740.197V67.44H753.301V130.08L783.685 95.088H801.973L764.821 134.4L802.117 174H784.261Z" fill="white"/>
</svg>
